<?xml version="1.0" standalone="no"?>
<!DOCTYPE svg PUBLIC "-//W3C//DTD SVG 20010904//EN"
 "http://www.w3.org/TR/2001/REC-SVG-20010904/DTD/svg10.dtd">
<svg version="1.0" xmlns="http://www.w3.org/2000/svg"
 width="247.000000pt" height="204.000000pt" viewBox="0 0 247.000000 204.000000"
 preserveAspectRatio="xMidYMid meet">

<g transform="translate(0.000000,204.000000) scale(0.100000,-0.100000)"
fill="#000000" stroke="none">
<path d="M370 2023 c-59 -10 -92 -26 -101 -50 -5 -13 -9 -76 -9 -139 l0 -114
-110 0 c-97 0 -112 -2 -130 -20 -20 -20 -20 -33 -20 -816 0 -523 4 -802 10
-814 22 -40 42 -42 162 -11 187 48 316 65 493 65 184 -1 306 -22 461 -80 50
-19 100 -34 109 -34 9 0 59 15 109 34 155 58 276 79 466 79 180 0 283 -13 482
-64 125 -31 146 -30 168 11 6 12 10 291 10 814 0 783 0 796 -20 816 -17 17
-33 20 -125 20 l-105 0 0 114 c0 136 -7 160 -52 175 -58 18 -199 24 -311 12
-223 -24 -413 -103 -543 -224 l-75 -70 -62 62 c-161 161 -383 243 -656 240
-69 -1 -137 -4 -151 -6z m384 -147 c161 -44 297 -128 374 -231 l42 -58 0 -629
0 -630 -32 21 c-184 121 -446 201 -661 201 l-89 0 4 665 c3 578 5 667 18 676
22 15 273 4 344 -15z m1326 -651 l0 -665 -64 0 c-196 0 -420 -68 -621 -189
-46 -28 -86 -51 -90 -51 -3 0 -5 285 -5 633 l0 632 43 53 c132 161 349 249
615 251 l122 1 0 -665z m-1820 -198 c0 -310 2 -571 5 -580 10 -25 33 -29 152
-27 177 2 352 -33 500 -100 65 -30 208 -118 201 -125 -2 -2 -37 5 -78 16 -237
63 -476 64 -777 3 -67 -13 -125 -24 -128 -24 -3 0 -5 315 -5 700 l0 700 65 0
65 0 0 -563z m2080 -137 c0 -420 -4 -700 -9 -700 -5 0 -47 9 -93 20 -263 61
-545 65 -775 10 -43 -10 -79 -17 -80 -16 -6 6 171 104 247 137 159 69 303 92
494 80 103 -6 96 -51 96 605 l0 564 60 0 60 0 0 -700z"/>
</g>
</svg>
